# xmcd
#
# Track frame offsets: 
#        150
#        15840
#        35809
#        58464
#        76193
#        93180
#        111909
#        136370
#        154363
#        171346
#        189735
#        210577
#        236261
#        263486
#        287815
#        303737
#        318796
#        339613
#
# Disc length: 4778 seconds
#
# Revision: 1
# Processed by: cddbd v1.5.2PL0 Copyright (c) Steve Scherf et al.
# Submitted via: ExactAudioCopy v1.3
#
DISCID=fc12a812
DTITLE=Various Artist - Akella Presents - vol.161 - Women's Blues  CD
DTITLE=2
DYEAR=2018
DGENRE=Blues
TTITLE0=Debbie Davies - Behind Your Eyes
TTITLE1=Danielle Nicole - Crawl
TTITLE2=Melanie Mason - The Devil Chose Me
TTITLE3=Malorie Leogrande - The Other Side
TTITLE4=Beki Brindle - Blue for You
TTITLE5=Beth Hart - Love Gangster
TTITLE6=Georgia Randall - You Lied To Me
TTITLE7=Jenn Cleary - Wonderful World
TTITLE8=Lilly Martin - Tumbling Walls
TTITLE9=Mojo Juju - Ain't Gonna Wait
TTITLE10=Kristy Kruger - Directions for a Sudden Death
TTITLE11=Lee Rizzo - Little Birdie
TTITLE12=Samantha Fish - Somebody's Always Trying
TTITLE13=Amanda Fish - Don't Mean a Thing
TTITLE14=Soul Return - Only Love Can Save Us Now
TTITLE15=Dana Fuchs - Sedative
TTITLE16=Marva Wright - Boogie
TTITLE17=Mindi Abair - The Best Part Of Christmas
EXTD=
EXTT0=
EXTT1=
EXTT2=
EXTT3=
EXTT4=
EXTT5=
EXTT6=
EXTT7=
EXTT8=
EXTT9=
EXTT10=
EXTT11=
EXTT12=
EXTT13=
EXTT14=
EXTT15=
EXTT16=
EXTT17=
PLAYORDER=
